<svg xmlns="http://www.w3.org/2000/svg" xmlns:cc="http://creativecommons.org/ns#" xmlns:dc="http://purl.org/dc/elements/1.1/" xmlns:rdf="http://www.w3.org/1999/02/22-rdf-syntax-ns#" xmlns:svg="http://www.w3.org/2000/svg" height="24" id="svg8" version="1.1" viewBox="0 0 24 24" width="24"><defs id="defs2"/><g id="g2376" style="display:inline" transform="translate(0,-290.64998)"><path d="m 6,292.64998 c -2.1987,0 -4,1.8013 -4,4 v 12 c 0,2.1987 1.8013,4 4,4 h 12 c 2.1987,0 4,-1.8013 4,-4 v -12 c 0,-2.1987 -1.8013,-4 -4,-4 z m 0,2 h 12 c 1.1253,0 2,0.8747 2,2 v 6.04883 L 18.62109,301.3199 C 18.17776,300.87658 17.58864,300.65584 17,300.65584 c -0.58864,0 -1.17776,0.22073 -1.62109,0.66406 l -3.17188,3.17383 c -0.17962,0.17962 -0.44438,0.20015 -0.64844,0.0488 l -1.79297,-1.33008 c -0.98477,-0.73012 -2.36825,-0.64626 -3.25781,0.19727 L 4,305.78865 v -9.13867 c 0,-1.1253 0.8747,-2 2,-2 z M 17.20703,302.73592 20,305.52889 v 3.12109 c 0,1.1253 -0.8747,2 -2,2 H 6 c -1.07446,0 -2,-0.98795 -2,-2.10742 l 3.88281,-3.68164 c 0.19462,-0.18455 0.47596,-0.20077 0.69141,-0.041 l 1.79297,1.32812 c 0.98849,0.73288 2.38378,0.62989 3.2539,-0.24023 l 3.17188,-3.17188 c 0.13039,-0.13039 0.33995,-0.0741 0.41406,1e-5 z" id="rect2317" style="color: gray;font-style:normal;font-variant:normal;font-weight:normal;font-stretch:normal;font-size:medium;line-height:normal;font-family:sans-serif;font-variant-ligatures:normal;font-variant-position:normal;font-variant-caps:normal;font-variant-numeric:normal;font-variant-alternates:normal;font-variant-east-asian:normal;font-feature-settings:normal;font-variation-settings:normal;text-indent:0;text-align:start;text-decoration:none;text-decoration-line:none;text-decoration-style:solid;text-decoration-color: gray;letter-spacing:normal;word-spacing:normal;text-transform:none;writing-mode:lr-tb;direction:ltr;text-orientation:mixed;dominant-baseline:auto;baseline-shift:baseline;text-anchor:start;white-space:normal;shape-padding:0;shape-margin:0;inline-size:0;clip-rule:nonzero;display:inline;overflow:visible;visibility:visible;opacity:1;isolation:auto;mix-blend-mode:normal;color-interpolation:sRGB;color-interpolation-filters:linearRGB;solid-color:#000000;solid-opacity:1;vector-effect:none;fill: gray;fill-opacity:1;fill-rule:nonzero;stroke:none;stroke-linecap:round;stroke-linejoin:round;stroke-miterlimit:4;stroke-dasharray:none;stroke-dashoffset:0;stroke-opacity:1;color-rendering:auto;image-rendering:auto;shape-rendering:auto;text-rendering:auto;enable-background:accumulate;stop-color:#000000;stop-opacity:1"/><path d="M 9,298.13022 A 1.5197747,1.5197747 0 0 1 7.48023,299.64999 1.5197747,1.5197747 0 0 1 5.96045,298.13022 1.5197747,1.5197747 0 0 1 7.48023,296.61044 1.5197747,1.5197747 0 0 1 9,298.13022 Z" id="path2356" style="fill: gray;fill-opacity:1;stroke:none;stroke-width:1.99999;stroke-linecap:round;stroke-linejoin:round;stroke-miterlimit:4;stroke-dasharray:none;stroke-opacity:1;opacity:1"/></g></svg>